<svg width="83" height="43" viewBox="0 0 83 43" fill="none" xmlns="http://www.w3.org/2000/svg">
<g filter="url(#filter0_d_507_4164)">
<rect x="5" y="5" width="73" height="33" rx="16.5" fill="#2C2421" shape-rendering="crispEdges"/>
<rect x="5.5" y="5.5" width="72" height="32" rx="16" stroke="#FF9254" shape-rendering="crispEdges"/>
<path d="M23.3173 23.576C23.8333 24.584 24.5653 25.088 25.3333 25.088C26.4733 25.1 27.1093 24.548 27.1093 23.696C27.1093 21.68 22.6573 22.544 22.6573 19.46C22.6573 17.996 23.8573 17.132 25.5013 17.144C26.6413 17.156 27.7333 17.792 28.2253 19.172L27.0853 19.58C26.7733 18.656 26.1493 18.26 25.4893 18.248C24.5413 18.248 23.9293 18.716 23.9293 19.46C23.9293 21.452 28.3693 20.696 28.3693 23.708C28.3693 25.196 27.2053 26.216 25.3213 26.192C24.0253 26.18 22.9933 25.436 22.2613 24.164L23.3173 23.576ZM35.8107 17.24V18.356H33.3147V26.096H32.0307V18.356H29.5227V17.24H35.8107ZM40.8934 26.18C38.7574 26.18 37.5094 24.692 37.5094 22.592V17.24H38.7814V22.592C38.7814 24.032 39.4894 25.004 40.8934 25.004C42.2974 25.004 43.0054 24.032 43.0054 22.592V17.24H44.2894V22.592C44.2894 24.692 43.0294 26.18 40.8934 26.18ZM48.713 24.98C50.609 24.98 51.881 23.648 51.881 21.668C51.881 19.688 50.609 18.356 48.713 18.356L47.453 18.368V24.968L48.713 24.98ZM46.181 26.096V17.24H48.725C51.317 17.24 53.141 19.064 53.141 21.668C53.141 24.272 51.317 26.096 48.725 26.096H46.181ZM60.8815 17.24L57.7975 22.64V26.096H56.5255V22.64L53.4415 17.24H54.9175L57.1615 21.236L59.4055 17.24H60.8815Z" fill="#FF9254"/>
</g>
<defs>
<filter id="filter0_d_507_4164" x="0.881773" y="0.881773" width="81.2365" height="41.2365" filterUnits="userSpaceOnUse" color-interpolation-filters="sRGB">
<feFlood flood-opacity="0" result="BackgroundImageFix"/>
<feColorMatrix in="SourceAlpha" type="matrix" values="0 0 0 0 0 0 0 0 0 0 0 0 0 0 0 0 0 0 127 0" result="hardAlpha"/>
<feOffset/>
<feGaussianBlur stdDeviation="2.05911"/>
<feComposite in2="hardAlpha" operator="out"/>
<feColorMatrix type="matrix" values="0 0 0 0 0 0 0 0 0 0 0 0 0 0 0 0 0 0 0.25 0"/>
<feBlend mode="normal" in2="BackgroundImageFix" result="effect1_dropShadow_507_4164"/>
<feBlend mode="normal" in="SourceGraphic" in2="effect1_dropShadow_507_4164" result="shape"/>
</filter>
</defs>
</svg>
