<svg width="25" height="24" viewBox="0 0 25 24" fill="none" xmlns="http://www.w3.org/2000/svg">
<path d="M18.5 18C17.5912 15.6467 15.2477 13.9712 12.5 13.9712C9.75229 13.9712 7.40879 15.6467 6.5 18M15.2444 8.65706C15.2444 10.1245 14.0157 11.3141 12.5 11.3141C10.9843 11.3141 9.75561 10.1245 9.75561 8.65706C9.75561 7.18961 10.9843 6 12.5 6C14.0157 6 15.2444 7.18961 15.2444 8.65706Z" stroke="#FEFEFE" stroke-width="1.5" stroke-linejoin="round"/>
<path d="M21.5 11C21.5 15.9706 16.1 22 12.5 22C8.9 22 3.5 15.9706 3.5 11C3.5 6.02944 7.52944 2 12.5 2C17.4706 2 21.5 6.02944 21.5 11Z" stroke="#FEFEFE" stroke-width="1.5" stroke-linecap="round" stroke-linejoin="round"/>
</svg>
