<svg width="24" height="24" viewBox="0 0 24 24" fill="none" xmlns="http://www.w3.org/2000/svg">
<path d="M14.9286 7.55556C14.9286 9.26039 13.6004 10.6111 12 10.6111V11.6111C14.1867 11.6111 15.9286 9.77808 15.9286 7.55556H14.9286ZM12 10.6111C10.3996 10.6111 9.07143 9.26039 9.07143 7.55556H8.07143C8.07143 9.77808 9.81333 11.6111 12 11.6111V10.6111ZM9.07143 7.55556C9.07143 5.85072 10.3996 4.5 12 4.5V3.5C9.81333 3.5 8.07143 5.33303 8.07143 7.55556H9.07143ZM12 4.5C13.6004 4.5 14.9286 5.85072 14.9286 7.55556H15.9286C15.9286 5.33303 14.1867 3.5 12 3.5V4.5ZM17.5 16.8889C17.5 17.4661 17.0386 18.1128 16.0125 18.6449C15.0113 19.164 13.5935 19.5 12 19.5V20.5C13.7202 20.5 15.3024 20.1395 16.4728 19.5327C17.6182 18.9387 18.5 18.0299 18.5 16.8889H17.5ZM12 19.5C10.4065 19.5 8.98869 19.164 7.98752 18.6449C6.96138 18.1128 6.5 17.4661 6.5 16.8889H5.5C5.5 18.0299 6.38177 18.9387 7.5272 19.5327C8.69761 20.1395 10.2798 20.5 12 20.5V19.5ZM6.5 16.8889C6.5 16.3117 6.96138 15.665 7.98752 15.1329C8.98869 14.6138 10.4065 14.2778 12 14.2778V13.2778C10.2798 13.2778 8.69761 13.6382 7.5272 14.2451C6.38177 14.8391 5.5 15.7479 5.5 16.8889H6.5ZM12 14.2778C13.5935 14.2778 15.0113 14.6138 16.0125 15.1329C17.0386 15.665 17.5 16.3117 17.5 16.8889H18.5C18.5 15.7479 17.6182 14.8391 16.4728 14.2451C15.3024 13.6382 13.7202 13.2778 12 13.2778V14.2778Z" fill="#FEFEFE"/>
</svg>
