<svg width="25" height="24" viewBox="0 0 25 24" fill="none" xmlns="http://www.w3.org/2000/svg">
<path d="M16.5 22V13C16.5 11.5858 16.5 10.8787 16.0607 10.4393C15.6213 10 14.9142 10 13.5 10H11.5C10.0858 10 9.37868 10 8.93934 10.4393C8.5 10.8787 8.5 11.5858 8.5 13V22" stroke="#FEFEFE" stroke-width="1.5" stroke-linecap="round"/>
<path d="M8.5 22C8.5 20.5858 8.5 19.8787 8.06066 19.4393C7.62132 19 6.91421 19 5.5 19C4.08579 19 3.37868 19 2.93934 19.4393C2.5 19.8787 2.5 20.5858 2.5 22" stroke="#FEFEFE" stroke-width="1.5" stroke-linecap="round"/>
<path d="M22.5 22V19C22.5 17.5858 22.5 16.8787 22.0607 16.4393C21.6213 16 20.9142 16 19.5 16C18.0858 16 17.3787 16 16.9393 16.4393C16.5 16.8787 16.5 17.5858 16.5 19V22" stroke="#FEFEFE" stroke-width="1.5" stroke-linecap="round"/>
<path d="M11.6459 3.02251C12.0259 2.34084 12.2159 2 12.5 2C12.7841 2 12.9741 2.34084 13.3541 3.02251L13.4524 3.19887C13.5603 3.39258 13.6143 3.48944 13.6985 3.55334C13.7827 3.61725 13.8875 3.64097 14.0972 3.68841L14.2881 3.73161C15.026 3.89857 15.395 3.98205 15.4828 4.26432C15.5706 4.54659 15.319 4.84072 14.816 5.42898L14.6858 5.58117C14.5429 5.74833 14.4714 5.83191 14.4392 5.93531C14.4071 6.03872 14.4179 6.15023 14.4395 6.37327L14.4592 6.57632C14.5352 7.36118 14.5733 7.75361 14.3435 7.92807C14.1136 8.10252 13.7682 7.94346 13.0773 7.62535L12.8986 7.54305C12.7022 7.45265 12.6041 7.40745 12.5 7.40745C12.3959 7.40745 12.2978 7.45265 12.1014 7.54305L11.9227 7.62535C11.2318 7.94346 10.8864 8.10252 10.6565 7.92807C10.4267 7.75361 10.4648 7.36118 10.5408 6.57632L10.5605 6.37327C10.5821 6.15023 10.5929 6.03872 10.5608 5.93531C10.5286 5.83191 10.4571 5.74833 10.3142 5.58117L10.184 5.42898C9.68097 4.84072 9.42945 4.54659 9.51723 4.26432C9.60501 3.98205 9.97396 3.89857 10.7119 3.73161L10.9028 3.68841C11.1125 3.64097 11.2173 3.61725 11.3015 3.55334C11.3857 3.48944 11.4397 3.39258 11.5476 3.19887L11.6459 3.02251Z" stroke="#FEFEFE" stroke-width="1.5"/>
</svg>
