<svg width="25" height="24" viewBox="0 0 25 24" fill="none" xmlns="http://www.w3.org/2000/svg">
<path d="M12.5 14C11.3954 14 10.5 13.1046 10.5 12C10.5 10.8954 11.3954 10 12.5 10C13.6046 10 14.5 10.8954 14.5 12C14.5 13.1046 13.6046 14 12.5 14Z" stroke="#FEFEFE" stroke-width="1.5"/>
<path d="M20.5 14C19.3954 14 18.5 13.1046 18.5 12C18.5 10.8954 19.3954 10 20.5 10C21.6046 10 22.5 10.8954 22.5 12C22.5 13.1046 21.6046 14 20.5 14Z" stroke="#FEFEFE" stroke-width="1.5"/>
<path d="M4.5 14C3.39543 14 2.5 13.1046 2.5 12C2.5 10.8954 3.39543 10 4.5 10C5.60457 10 6.5 10.8954 6.5 12C6.5 13.1046 5.60457 14 4.5 14Z" stroke="#FEFEFE" stroke-width="1.5"/>
</svg>
