<svg width="91" height="43" viewBox="0 0 91 43" fill="none" xmlns="http://www.w3.org/2000/svg">
<g filter="url(#filter0_d_507_4166)">
<rect x="5" y="5" width="81" height="33" rx="16.5" fill="#252930" shape-rendering="crispEdges"/>
<rect x="5.5" y="5.5" width="80" height="32" rx="16" stroke="#EDF0F4" shape-rendering="crispEdges"/>
<path d="M26.335 25.076C28.207 25.076 29.467 23.708 29.467 21.668C29.467 19.628 28.207 18.26 26.335 18.26C24.463 18.26 23.215 19.628 23.215 21.668C23.215 23.708 24.463 25.076 26.335 25.076ZM21.931 21.668C21.931 19.016 23.755 17.144 26.335 17.144C28.927 17.144 30.751 19.016 30.751 21.668C30.751 24.32 28.927 26.192 26.335 26.192C23.755 26.192 21.931 24.32 21.931 21.668ZM37.801 17.24V18.356H35.305V26.096H34.021V18.356H31.513V17.24H37.801ZM46.1024 17.24V26.096H44.8184V22.1H40.6424V26.096H39.3704V17.24H40.6424V20.996H44.8184V17.24H46.1024ZM53.7395 17.24V18.356H49.2875V20.984H53.1155V22.088H49.2875V24.98H53.7395V26.096H48.0155V17.24H53.7395ZM58.758 21.656C59.73 21.656 60.39 21.02 60.39 20C60.39 18.98 59.73 18.356 58.758 18.356H56.826V21.656H58.758ZM55.554 26.096V17.24H58.914C60.534 17.24 61.662 18.344 61.662 19.976C61.674 21.128 61.05 22.112 59.718 22.592L62.082 26.096H60.546L58.302 22.772H56.826V26.096H55.554ZM64.1083 23.576C64.6243 24.584 65.3563 25.088 66.1243 25.088C67.2643 25.1 67.9003 24.548 67.9003 23.696C67.9003 21.68 63.4483 22.544 63.4483 19.46C63.4483 17.996 64.6483 17.132 66.2923 17.144C67.4323 17.156 68.5243 17.792 69.0163 19.172L67.8763 19.58C67.5643 18.656 66.9403 18.26 66.2803 18.248C65.3323 18.248 64.7203 18.716 64.7203 19.46C64.7203 21.452 69.1603 20.696 69.1603 23.708C69.1603 25.196 67.9963 26.216 66.1123 26.192C64.8163 26.18 63.7843 25.436 63.0523 24.164L64.1083 23.576Z" fill="#EDF0F4"/>
</g>
<defs>
<filter id="filter0_d_507_4166" x="0.881773" y="0.881773" width="89.2365" height="41.2365" filterUnits="userSpaceOnUse" color-interpolation-filters="sRGB">
<feFlood flood-opacity="0" result="BackgroundImageFix"/>
<feColorMatrix in="SourceAlpha" type="matrix" values="0 0 0 0 0 0 0 0 0 0 0 0 0 0 0 0 0 0 127 0" result="hardAlpha"/>
<feOffset/>
<feGaussianBlur stdDeviation="2.05911"/>
<feComposite in2="hardAlpha" operator="out"/>
<feColorMatrix type="matrix" values="0 0 0 0 0 0 0 0 0 0 0 0 0 0 0 0 0 0 0.25 0"/>
<feBlend mode="normal" in2="BackgroundImageFix" result="effect1_dropShadow_507_4166"/>
<feBlend mode="normal" in="SourceGraphic" in2="effect1_dropShadow_507_4166" result="shape"/>
</filter>
</defs>
</svg>
