<svg width="24" height="24" viewBox="0 0 24 24" fill="none" xmlns="http://www.w3.org/2000/svg">
<path d="M22 17.0243V4.80902C22 4.43733 21.6088 4.19558 21.2764 4.3618L16.8406 6.57969C16.7287 6.63563 16.5999 6.6476 16.4797 6.61324L7.52034 4.05343C7.40006 4.01906 7.27126 4.03103 7.15937 4.08698L2.27639 6.52847C2.107 6.61317 2 6.7863 2 6.97568V19.191C2 19.5627 2.39116 19.8044 2.72361 19.6382L7.15937 17.4203C7.27126 17.3644 7.40006 17.3524 7.52034 17.3868L16.4797 19.9466C16.5999 19.9809 16.7287 19.969 16.8406 19.913L21.7236 17.4715C21.893 17.3868 22 17.2137 22 17.0243Z" stroke="#080909" stroke-width="1.5"/>
<path d="M16 20V7" stroke="#080909" stroke-width="1.5"/>
<path d="M8 17V4" stroke="#080909" stroke-width="1.5"/>
</svg>
