<svg width="24" height="24" viewBox="0 0 24 24" fill="none" xmlns="http://www.w3.org/2000/svg">
<path d="M14.8993 4.19794C14.2395 5.01032 13.1229 5.61638 12.2347 5.61638C12.1332 5.61638 12.0317 5.60348 11.9683 5.59059C11.9556 5.53901 11.9302 5.38427 11.9302 5.22953C11.9302 4.19794 12.4504 3.16634 13.0087 2.5216C13.7193 1.67054 14.912 1.03868 15.9017 1C15.927 1.11605 15.9397 1.2579 15.9397 1.39974C15.9397 2.43133 15.5083 3.45003 14.8993 4.19794ZM15.5971 5.83559C16.1554 5.83559 18.1729 5.88717 19.4925 7.82141C19.3783 7.91167 17.3735 9.05932 17.3735 11.6254C17.3735 14.5912 19.9239 15.6486 20 15.6744C19.9873 15.7389 19.594 17.1057 18.655 18.5113C17.8176 19.7363 16.9294 20.9742 15.5971 20.9742C14.2522 20.9742 13.9096 20.1747 12.3743 20.1747C10.8644 20.1747 10.3315 21 9.1134 21C7.88263 21 7.03251 19.8524 6.05551 18.4597C4.91356 16.8092 4 14.256 4 11.8317C4 7.95035 6.48692 5.88717 8.93577 5.88717C10.23 5.88717 11.3085 6.75113 12.1332 6.75113C12.9072 6.75113 14.1126 5.83559 15.5971 5.83559Z" fill="#080909"/>
</svg>
