<svg width="24" height="24" viewBox="0 0 24 24" fill="none" xmlns="http://www.w3.org/2000/svg">
<path d="M10.7702 18.3002C9.28094 18.3002 7.8251 17.8586 6.58679 17.0312C5.34849 16.2038 4.38335 15.0278 3.81342 13.6518C3.2435 12.2759 3.09438 10.7619 3.38492 9.30121C3.67547 7.84053 4.39263 6.49881 5.44572 5.44572C6.49881 4.39263 7.84053 3.67547 9.30121 3.38492C10.7619 3.09438 12.2759 3.2435 13.6518 3.81342C15.0278 4.38335 16.2038 5.34849 17.0312 6.58679C17.8586 7.8251 18.3002 9.28094 18.3002 10.7702C18.3002 11.7591 18.1055 12.7383 17.727 13.6518C17.3486 14.5654 16.794 15.3955 16.0948 16.0948C15.3955 16.794 14.5654 17.3486 13.6518 17.727C12.7383 18.1055 11.7591 18.3002 10.7702 18.3002ZM10.7702 4.75024C9.58355 4.75024 8.42351 5.10213 7.43682 5.76142C6.45012 6.42071 5.68109 7.35778 5.22696 8.45414C4.77283 9.55049 4.65401 10.7569 4.88553 11.9208C5.11704 13.0847 5.68848 14.1538 6.5276 14.9929C7.36671 15.832 8.43581 16.4034 9.5997 16.6349C10.7636 16.8665 11.97 16.7476 13.0663 16.2935C14.1627 15.8394 15.0998 15.0704 15.7591 14.0837C16.4183 13.097 16.7702 11.9369 16.7702 10.7502C16.7702 9.15894 16.1381 7.63282 15.0129 6.5076C13.8877 5.38238 12.3615 4.75024 10.7702 4.75024Z" fill="#EDF0F4"/>
<path d="M20 20.7505C19.9014 20.7509 19.8038 20.7317 19.7128 20.6939C19.6218 20.6561 19.5392 20.6006 19.47 20.5305L15.34 16.4005C15.2075 16.2583 15.1354 16.0702 15.1388 15.8759C15.1422 15.6816 15.2209 15.4962 15.3583 15.3588C15.4958 15.2214 15.6811 15.1427 15.8754 15.1393C16.0697 15.1358 16.2578 15.208 16.4 15.3405L20.53 19.4705C20.6704 19.6111 20.7493 19.8017 20.7493 20.0005C20.7493 20.1992 20.6704 20.3898 20.53 20.5305C20.4607 20.6006 20.3782 20.6561 20.2872 20.6939C20.1961 20.7317 20.0985 20.7509 20 20.7505Z" fill="#EDF0F4"/>
</svg>
