<svg width="24" height="24" viewBox="0 0 24 24" fill="none" xmlns="http://www.w3.org/2000/svg">
<path d="M12.0002 15.2497C11.9016 15.2501 11.804 15.2309 11.713 15.1931C11.622 15.1554 11.5394 15.0998 11.4702 15.0297L6.47018 10.0297C6.37045 9.88377 6.32545 9.70735 6.34311 9.53151C6.36077 9.35567 6.43995 9.19171 6.56669 9.06856C6.69344 8.9454 6.8596 8.87096 7.03587 8.85836C7.21214 8.84575 7.38721 8.8958 7.53018 8.99967L12.0002 13.4397L16.4702 8.99967C16.6111 8.90828 16.7787 8.86686 16.946 8.88205C17.1133 8.89724 17.2707 8.96815 17.3929 9.08343C17.5151 9.19871 17.595 9.35168 17.6199 9.51781C17.6448 9.68395 17.6132 9.85363 17.5302 9.99967L12.5302 14.9997C12.4635 15.0752 12.3821 15.1364 12.291 15.1794C12.1998 15.2224 12.1009 15.2463 12.0002 15.2497Z" fill="#DBE2E9"/>
</svg>
