<svg width="14" height="14" viewBox="0 0 14 14" fill="none" xmlns="http://www.w3.org/2000/svg">
<path d="M7 2C7.98891 2 8.9556 2.29324 9.77785 2.84265C10.6001 3.39206 11.241 4.17295 11.6194 5.08658C11.9978 6.00021 12.0969 7.00554 11.9039 7.97545C11.711 8.94535 11.2348 9.83627 10.5355 10.5355C9.83627 11.2348 8.94535 11.711 7.97545 11.9039C7.00554 12.0968 6.00021 11.9978 5.08658 11.6194C4.17295 11.241 3.39206 10.6001 2.84265 9.77785C2.29324 8.9556 2 7.9889 2 7C2 5.67391 2.52678 4.40215 3.46446 3.46446C4.40215 2.52678 5.67392 2 7 2ZM7 11.1667C7.82409 11.1667 8.62967 10.9223 9.31487 10.4645C10.0001 10.0066 10.5341 9.35587 10.8495 8.59451C11.1649 7.83315 11.2474 6.99538 11.0866 6.18712C10.9258 5.37887 10.529 4.63644 9.94628 4.05372C9.36356 3.471 8.62113 3.07416 7.81287 2.91339C7.00462 2.75262 6.16684 2.83513 5.40548 3.1505C4.64413 3.46586 3.99338 3.99992 3.53554 4.68512C3.0777 5.37033 2.83333 6.17591 2.83333 7C2.83333 8.10507 3.27232 9.16487 4.05372 9.94628C4.83512 10.7277 5.89493 11.1667 7 11.1667Z" fill="#B7BFC6"/>
<path d="M7.00033 6.44439C7.11039 6.44583 7.21553 6.49019 7.29336 6.56802C7.37119 6.64585 7.41555 6.751 7.41699 6.86106L7.41699 8.8055C7.41699 8.91601 7.37309 9.02199 7.29495 9.10013C7.21681 9.17827 7.11083 9.22217 7.00033 9.22217C6.88982 9.22217 6.78384 9.17827 6.7057 9.10013C6.62756 9.02199 6.58366 8.91601 6.58366 8.8055L6.58366 6.86106C6.5851 6.751 6.62946 6.64585 6.70729 6.56802C6.78512 6.49019 6.89027 6.44583 7.00033 6.44439Z" fill="#B7BFC6"/>
<path d="M7.00033 4.77805C7.11039 4.77949 7.21553 4.82385 7.29336 4.90168C7.37119 4.97951 7.41555 5.08466 7.41699 5.19472L7.41699 5.47249C7.41699 5.583 7.37309 5.68898 7.29495 5.76712C7.21681 5.84526 7.11083 5.88916 7.00033 5.88916C6.88982 5.88916 6.78384 5.84526 6.7057 5.76712C6.62756 5.68898 6.58366 5.583 6.58366 5.47249L6.58366 5.19472C6.5851 5.08466 6.62946 4.97951 6.70729 4.90168C6.78512 4.82385 6.89027 4.77949 7.00033 4.77805Z" fill="#B7BFC6"/>
</svg>
