<svg width="24" height="24" viewBox="0 0 24 24" fill="none" xmlns="http://www.w3.org/2000/svg">
<path fill-rule="evenodd" clip-rule="evenodd" d="M22.4779 11.2522H17.4634C17.0503 11.2522 16.7154 11.5871 16.7154 12.0002C16.7154 12.4133 17.0503 12.7481 17.4634 12.7481H22.4778C22.1138 17.9208 18.0045 22.0599 12.8449 22.4706V17.3663C12.8449 16.9532 12.51 16.6183 12.0969 16.6183C11.6838 16.6183 11.3489 16.9532 11.3489 17.3663L11.3489 22.4842C6.09868 22.1632 1.89072 17.9854 1.52217 12.7481H6.73172C7.14482 12.7481 7.47969 12.4133 7.47969 12.0002C7.47969 11.5871 7.14482 11.2522 6.73172 11.2522H1.52214C1.89055 6.01444 6.09908 1.83634 11.3499 1.51572L11.3499 6.63442C11.3499 7.04751 11.6848 7.38239 12.0979 7.38239C12.511 7.38239 12.8458 7.04751 12.8458 6.63442V1.5295C18.0052 1.94059 22.114 6.07969 22.4779 11.2522ZM12 24C18.6274 24 24 18.6274 24 12C24 5.37258 18.6274 0 12 0C5.37258 0 0 5.37258 0 12C0 18.6274 5.37258 24 12 24ZM13.4639 12C13.4639 12.8083 12.8087 13.4635 12.0005 13.4635C11.1923 13.4635 10.5371 12.8083 10.5371 12C10.5371 11.1918 11.1923 10.5366 12.0005 10.5366C12.8087 10.5366 13.4639 11.1918 13.4639 12Z" fill="#080909"/>
</svg>
