<svg width="24" height="24" viewBox="0 0 24 24" fill="none" xmlns="http://www.w3.org/2000/svg">
<path d="M19.28 7.75L13.75 2.22C13.6095 2.07931 13.4188 2.00018 13.22 2H10.75C10.0207 2 9.32118 2.28973 8.80546 2.80546C8.28973 3.32118 8 4.02065 8 4.75V6H6.75C6.02065 6 5.32118 6.28973 4.80546 6.80546C4.28973 7.32118 4 8.02065 4 8.75V18.75C4 19.4793 4.28973 20.1788 4.80546 20.6945C5.32118 21.2103 6.02065 21.5 6.75 21.5H13.75C14.4793 21.5 15.1788 21.2103 15.6945 20.6945C16.2103 20.1788 16.5 19.4793 16.5 18.75V17.5H16.75C17.4793 17.5 18.1788 17.2103 18.6945 16.6945C19.2103 16.1788 19.5 15.4793 19.5 14.75V8.25C19.4921 8.0616 19.4136 7.88309 19.28 7.75ZM14 4.56L16.94 7.5H14V4.56ZM15 18.75C15 19.0815 14.8683 19.3995 14.6339 19.6339C14.3995 19.8683 14.0815 20 13.75 20H6.75C6.41848 20 6.10054 19.8683 5.86612 19.6339C5.6317 19.3995 5.5 19.0815 5.5 18.75V8.75C5.5 8.41848 5.6317 8.10054 5.86612 7.86612C6.10054 7.6317 6.41848 7.5 6.75 7.5H8V14.75C8 15.4793 8.28973 16.1788 8.80546 16.6945C9.32118 17.2103 10.0207 17.5 10.75 17.5H15V18.75ZM16.75 16H10.75C10.4185 16 10.1005 15.8683 9.86612 15.6339C9.6317 15.3995 9.5 15.0815 9.5 14.75V4.75C9.5 4.41848 9.6317 4.10054 9.86612 3.86612C10.1005 3.6317 10.4185 3.5 10.75 3.5H12.5V8.25C12.5026 8.44811 12.5824 8.63737 12.7225 8.77747C12.8626 8.91756 13.0519 8.99741 13.25 9H18V14.75C18 15.0815 17.8683 15.3995 17.6339 15.6339C17.3995 15.8683 17.0815 16 16.75 16Z" fill="#B7BFC6"/>
</svg>
