<svg width="56" height="56" viewBox="0 0 56 56" fill="none" xmlns="http://www.w3.org/2000/svg">
<path d="M3.27835e-07 15C1.46777e-07 6.71573 6.71573 -1.46777e-07 15 -3.27835e-07L56 -1.22392e-06L28 28L1.22392e-06 56L3.27835e-07 15Z" fill="#363E45"/>
<path d="M19.3901 25.6596L14.231 24.2171L18.8385 28.8246L17.9391 29.724L11.677 23.4619L12.6528 22.4861L18.6603 24.1322L17.0057 18.1331L17.99 17.1488L24.2521 23.411L23.3527 24.3104L18.7452 19.7029L20.1792 24.8704L19.3901 25.6596ZM24.3176 10.8212L25.9553 16.8203L28.3991 19.2641L27.4996 20.1635L25.0559 17.7197L19.0568 16.0821L20.1005 15.0384L24.5128 16.2772L23.2739 11.8649L24.3176 10.8212Z" fill="#CAD1D9"/>
<path d="M56 41C56 49.2843 49.2843 56 41 56L0 56L28 28L56 0L56 41Z" fill="#15181B"/>
</svg>
