<svg width="48" height="48" viewBox="0 0 48 48" fill="none" xmlns="http://www.w3.org/2000/svg">
<path fill-rule="evenodd" clip-rule="evenodd" d="M23 20C23 19.4477 23.4477 19 24 19C24.5523 19 25 19.4477 25 20C25 20.5523 24.5523 21 24 21C23.4477 21 23 20.5523 23 20ZM23 24C23 23.4477 23.4477 23 24 23C24.5523 23 25 23.4477 25 24C25 24.5523 24.5523 25 24 25C23.4477 25 23 24.5523 23 24ZM24 27C23.4477 27 23 27.4477 23 28C23 28.5523 23.4477 29 24 29C24.5523 29 25 28.5523 25 28C25 27.4477 24.5523 27 24 27Z" fill="#FEFEFE"/>
</svg>
